# xmcd
#
# Track frame offsets:
#	150
#	18840
#	36485
#	55483
#	74939
#	87944
#	103286
#	119137
#	133078
#	150519
#	165535
#
# Disc length: 2402 seconds
#
# Revision: 1
# Processed by: cddbd v1.5.2PL0 Copyright (c) Steve Scherf et al.
# Submitted via: EasyCDDAExtractor 8.2.3.1
#
DISCID=a309600b
DTITLE=Various Artist - Somewhere Down In Texas
DYEAR=2005
DGENRE=Country
TTITLE0=George Strait - If The Whole World Was A Honky Tonk
TTITLE1=George Strait - Somewhere Down In Texas
TTITLE2=George Strait - The Seashores Of Old Mexico
TTITLE3=George Strait - You'll Be There
TTITLE4=George Strait - High Tone Woman
TTITLE5=George Strait and Lee Ann Womack - Good News  Bad News
TTITLE6=George Strait - Oh  What A Perfect Day
TTITLE7=George Strait - Texas
TTITLE8=George Strait - Ready For The End Of The World
TTITLE9=George Strait - She Let Herself Go
TTITLE10=George Strait - By The Light Of A Burning Bridge
EXTD=
EXTT0=
EXTT1=
EXTT2=
EXTT3=
EXTT4=
EXTT5=
EXTT6=
EXTT7=
EXTT8=
EXTT9=
EXTT10=
PLAYORDER=
